<svg width="1440" height="500" viewBox="0 0 1440 500" fill="none" xmlns="http://www.w3.org/2000/svg">
<rect x="-33" width="1500" height="500" fill="#1565C0"/>
<path d="M675.781 298V295.188H676.719V293.312H677.656V296.125H676.719V298H675.781ZM679.531 298V296.125H678.594V293.312H679.531V295.188H680.469V298H679.531ZM677.656 293.312V291.438H678.594V293.312H677.656ZM674.844 295.188V290.5H675.781V295.188H674.844ZM680.469 295.188V290.5H681.406V295.188H680.469ZM682.344 298V290.5H687.031V291.438H683.281V293.312H686.094V294.25H683.281V297.062H687.031V298H682.344ZM693.594 297.062V294.25H694.531V297.062H693.594ZM688.906 298V290.5H692.656V291.438H689.844V293.312H692.656V291.438H693.594V294.25H689.844V297.062H693.594V298H688.906ZM705.781 297.062V296.125H706.719V297.062H705.781ZM706.719 296.125V292.375H707.656V296.125H706.719ZM705.781 292.375V291.438H706.719V292.375H705.781ZM702.031 298V290.5H705.781V291.438H702.969V297.062H705.781V298H702.031ZM708.594 298V290.5H713.281V291.438H709.531V293.312H712.344V294.25H709.531V297.062H713.281V298H708.594ZM717.031 298V296.125H717.969V298H717.031ZM716.094 296.125V294.25H717.031V296.125H716.094ZM717.969 296.125V294.25H718.906V296.125H717.969ZM715.156 294.25V292.375H716.094V294.25H715.156ZM718.906 294.25V292.375H719.844V294.25H718.906ZM714.219 292.375V290.5H715.156V292.375H714.219ZM719.844 292.375V290.5H720.781V292.375H719.844ZM721.719 298V290.5H726.406V291.438H722.656V293.312H725.469V294.25H722.656V297.062H726.406V298H721.719ZM728.281 298V290.5H729.219V297.062H732.969V298H728.281ZM736.719 298V297.062H738.594V298H736.719ZM735.781 297.062V296.125H736.719V297.062H735.781ZM738.594 297.062V296.125H739.531V297.062H738.594ZM734.844 296.125V292.375H735.781V296.125H734.844ZM739.531 296.125V292.375H740.469V296.125H739.531ZM735.781 292.375V291.438H736.719V292.375H735.781ZM738.594 292.375V291.438H739.531V292.375H738.594ZM736.719 291.438V290.5H738.594V291.438H736.719ZM745.156 294.25V291.438H746.094V294.25H745.156ZM741.406 298V290.5H745.156V291.438H742.344V294.25H745.156V295.188H742.344V298H741.406ZM747.969 298V290.5H752.656V291.438H748.906V293.312H751.719V294.25H748.906V297.062H752.656V298H747.969ZM759.219 298V297.062H760.156V298H759.219ZM758.281 297.062V296.125H759.219V297.062H758.281ZM758.281 294.25V291.438H759.219V294.25H758.281ZM754.531 298V290.5H758.281V291.438H755.469V294.25H758.281V296.125H757.344V295.188H755.469V298H754.531Z" fill="white"/>
<path d="M607.477 258.209C606.966 258.642 606.297 258.996 605.471 259.271C604.685 259.507 603.76 259.625 602.698 259.625C601.282 259.625 600.102 259.448 599.158 259.094C598.254 258.74 597.664 258.13 597.388 257.265C596.287 253.804 595.382 251.011 594.674 248.887C593.966 246.724 593.416 244.836 593.022 243.223H592.727C592.609 245.544 592.511 247.668 592.432 249.595C592.393 251.483 592.354 253.332 592.314 255.141C592.314 256.95 592.275 258.779 592.196 260.628C592.157 262.477 592.078 264.522 591.96 266.764C591.449 266.961 590.78 267.118 589.954 267.236C589.128 267.393 588.302 267.472 587.476 267.472C585.746 267.472 584.389 267.197 583.405 266.646C582.461 266.095 581.989 265.092 581.989 263.637L583.7 233.547C584.015 233.036 584.703 232.485 585.765 231.895C586.827 231.305 588.322 231.01 590.249 231.01C592.334 231.01 593.966 231.344 595.146 232.013C596.326 232.642 597.192 233.685 597.742 235.14C598.096 236.084 598.47 237.166 598.863 238.385C599.296 239.604 599.709 240.863 600.102 242.161C600.535 243.459 600.948 244.757 601.341 246.055C601.735 247.314 602.089 248.454 602.403 249.477H602.698C603.642 246.173 604.586 242.987 605.53 239.919C606.474 236.812 607.34 234.216 608.126 232.131C608.716 231.816 609.464 231.561 610.368 231.364C611.312 231.128 612.355 231.01 613.495 231.01C615.423 231.01 616.996 231.305 618.215 231.895C619.435 232.446 620.143 233.252 620.339 234.314C620.497 235.101 620.654 236.32 620.811 237.972C621.008 239.585 621.205 241.414 621.401 243.459C621.598 245.504 621.795 247.668 621.991 249.949C622.188 252.23 622.365 254.433 622.522 256.557C622.719 258.642 622.876 260.569 622.994 262.339C623.112 264.07 623.191 265.407 623.23 266.351C622.562 266.744 621.854 267.02 621.106 267.177C620.398 267.374 619.474 267.472 618.333 267.472C616.839 267.472 615.58 267.216 614.557 266.705C613.535 266.194 612.984 265.191 612.905 263.696C612.669 259.409 612.512 255.554 612.433 252.132C612.394 248.71 612.315 245.839 612.197 243.518H611.902C611.509 245.052 610.939 246.979 610.191 249.3C609.444 251.621 608.539 254.59 607.477 258.209ZM639.035 266.941C638.642 267.059 638.012 267.177 637.147 267.295C636.321 267.413 635.456 267.472 634.551 267.472C633.686 267.472 632.899 267.413 632.191 267.295C631.522 267.177 630.952 266.941 630.48 266.587C630.008 266.233 629.634 265.761 629.359 265.171C629.123 264.542 629.005 263.735 629.005 262.752V245.052C629.005 244.147 629.162 243.38 629.477 242.751C629.831 242.082 630.323 241.492 630.952 240.981C631.581 240.47 632.348 240.017 633.253 239.624C634.197 239.191 635.2 238.818 636.262 238.503C637.324 238.188 638.425 237.952 639.566 237.795C640.707 237.598 641.847 237.5 642.988 237.5C644.876 237.5 646.371 237.874 647.472 238.621C648.573 239.329 649.124 240.509 649.124 242.161C649.124 242.712 649.045 243.262 648.888 243.813C648.731 244.324 648.534 244.796 648.298 245.229C647.472 245.229 646.626 245.268 645.761 245.347C644.896 245.426 644.05 245.544 643.224 245.701C642.398 245.858 641.611 246.035 640.864 246.232C640.156 246.389 639.546 246.586 639.035 246.822V266.941ZM686.42 261.159C686.42 262.378 686.204 263.283 685.771 263.873C685.338 264.463 684.65 265.033 683.706 265.584C683.155 265.899 682.467 266.213 681.641 266.528C680.815 266.803 679.91 267.039 678.927 267.236C677.944 267.472 676.901 267.649 675.8 267.767C674.738 267.885 673.676 267.944 672.614 267.944C669.782 267.944 667.127 267.57 664.649 266.823C662.171 266.036 660.008 264.876 658.159 263.342C656.35 261.769 654.914 259.822 653.852 257.501C652.79 255.18 652.259 252.486 652.259 249.418C652.259 246.193 652.829 243.38 653.97 240.981C655.15 238.582 656.684 236.595 658.572 235.022C660.499 233.409 662.682 232.21 665.121 231.423C667.599 230.636 670.136 230.243 672.732 230.243C676.469 230.243 679.419 230.853 681.582 232.072C683.785 233.252 684.886 234.806 684.886 236.733C684.886 237.756 684.63 238.641 684.119 239.388C683.608 240.135 683.018 240.725 682.349 241.158C681.366 240.568 680.127 239.998 678.632 239.447C677.177 238.857 675.525 238.562 673.676 238.562C670.372 238.562 667.737 239.506 665.77 241.394C663.843 243.282 662.879 245.898 662.879 249.241C662.879 251.05 663.135 252.624 663.646 253.961C664.197 255.259 664.924 256.341 665.829 257.206C666.734 258.032 667.776 258.661 668.956 259.094C670.136 259.487 671.395 259.684 672.732 259.684C673.597 259.684 674.364 259.605 675.033 259.448C675.702 259.291 676.213 259.114 676.567 258.917V253.371H670.254C670.018 252.938 669.782 252.368 669.546 251.66C669.349 250.952 669.251 250.205 669.251 249.418C669.251 248.002 669.566 246.979 670.195 246.35C670.864 245.721 671.709 245.406 672.732 245.406H682.703C683.883 245.406 684.788 245.74 685.417 246.409C686.086 247.038 686.42 247.943 686.42 249.123V261.159ZM707.605 267.944C705.284 267.944 703.121 267.629 701.115 267C699.148 266.331 697.417 265.348 695.923 264.05C694.467 262.752 693.307 261.12 692.442 259.153C691.616 257.186 691.203 254.885 691.203 252.25C691.203 249.654 691.616 247.432 692.442 245.583C693.307 243.695 694.428 242.161 695.805 240.981C697.181 239.762 698.755 238.877 700.525 238.326C702.295 237.736 704.104 237.441 705.953 237.441C708.037 237.441 709.925 237.756 711.617 238.385C713.347 239.014 714.822 239.88 716.042 240.981C717.3 242.082 718.264 243.4 718.933 244.934C719.641 246.468 719.995 248.14 719.995 249.949C719.995 251.286 719.621 252.309 718.874 253.017C718.126 253.725 717.084 254.177 715.747 254.374L701.174 256.557C701.606 257.855 702.491 258.838 703.829 259.507C705.166 260.136 706.7 260.451 708.431 260.451C710.043 260.451 711.558 260.254 712.974 259.861C714.429 259.428 715.609 258.937 716.514 258.386C717.143 258.779 717.674 259.33 718.107 260.038C718.539 260.746 718.756 261.493 718.756 262.28C718.756 264.05 717.93 265.368 716.278 266.233C715.019 266.902 713.603 267.354 712.03 267.59C710.456 267.826 708.981 267.944 707.605 267.944ZM705.953 244.757C705.009 244.757 704.183 244.914 703.475 245.229C702.806 245.544 702.255 245.957 701.823 246.468C701.39 246.94 701.056 247.491 700.82 248.12C700.623 248.71 700.505 249.32 700.466 249.949L710.555 248.297C710.437 247.51 710.004 246.724 709.257 245.937C708.509 245.15 707.408 244.757 705.953 244.757ZM738.569 237.441C740.182 237.441 741.755 237.677 743.289 238.149C744.863 238.582 746.22 239.25 747.36 240.155C748.54 239.368 749.858 238.719 751.313 238.208C752.808 237.697 754.598 237.441 756.682 237.441C758.177 237.441 759.632 237.638 761.048 238.031C762.504 238.424 763.782 239.054 764.883 239.919C766.024 240.745 766.929 241.866 767.597 243.282C768.266 244.659 768.6 246.35 768.6 248.356V266.941C768.207 267.059 767.578 267.177 766.712 267.295C765.886 267.413 765.021 267.472 764.116 267.472C763.251 267.472 762.464 267.413 761.756 267.295C761.088 267.177 760.517 266.941 760.045 266.587C759.573 266.233 759.2 265.761 758.924 265.171C758.688 264.542 758.57 263.735 758.57 262.752V248.651C758.57 247.471 758.236 246.625 757.567 246.114C756.899 245.563 755.994 245.288 754.853 245.288C754.303 245.288 753.713 245.426 753.083 245.701C752.454 245.937 751.982 246.193 751.667 246.468C751.707 246.625 751.726 246.783 751.726 246.94C751.726 247.058 751.726 247.176 751.726 247.294V266.941C751.294 267.059 750.645 267.177 749.779 267.295C748.953 267.413 748.108 267.472 747.242 267.472C746.377 267.472 745.59 267.413 744.882 267.295C744.214 267.177 743.643 266.941 743.171 266.587C742.699 266.233 742.326 265.761 742.05 265.171C741.814 264.542 741.696 263.735 741.696 262.752V248.651C741.696 247.471 741.323 246.625 740.575 246.114C739.867 245.563 739.002 245.288 737.979 245.288C737.271 245.288 736.662 245.406 736.15 245.642C735.639 245.839 735.206 246.035 734.852 246.232V266.941C734.459 267.059 733.83 267.177 732.964 267.295C732.138 267.413 731.273 267.472 730.368 267.472C729.503 267.472 728.716 267.413 728.008 267.295C727.34 267.177 726.769 266.941 726.297 266.587C725.825 266.233 725.452 265.761 725.176 265.171C724.94 264.542 724.822 263.735 724.822 262.752V244.934C724.822 243.872 725.039 243.026 725.471 242.397C725.943 241.768 726.573 241.178 727.359 240.627C728.697 239.683 730.349 238.916 732.315 238.326C734.321 237.736 736.406 237.441 738.569 237.441ZM774.483 230.361C774.483 228.866 774.975 227.608 775.958 226.585C776.981 225.562 778.318 225.051 779.97 225.051C781.622 225.051 782.94 225.562 783.923 226.585C784.946 227.608 785.457 228.866 785.457 230.361C785.457 231.856 784.946 233.114 783.923 234.137C782.94 235.16 781.622 235.671 779.97 235.671C778.318 235.671 776.981 235.16 775.958 234.137C774.975 233.114 774.483 231.856 774.483 230.361ZM784.985 266.941C784.552 267.02 783.903 267.118 783.038 267.236C782.212 267.393 781.366 267.472 780.501 267.472C779.636 267.472 778.849 267.413 778.141 267.295C777.472 267.177 776.902 266.941 776.43 266.587C775.958 266.233 775.584 265.761 775.309 265.171C775.073 264.542 774.955 263.735 774.955 262.752V238.739C775.388 238.66 776.017 238.562 776.843 238.444C777.708 238.287 778.574 238.208 779.439 238.208C780.304 238.208 781.071 238.267 781.74 238.385C782.448 238.503 783.038 238.739 783.51 239.093C783.982 239.447 784.336 239.939 784.572 240.568C784.847 241.158 784.985 241.945 784.985 242.928V266.941ZM809.542 248.828C809.542 247.609 809.188 246.724 808.48 246.173C807.812 245.583 806.887 245.288 805.707 245.288C804.921 245.288 804.134 245.386 803.347 245.583C802.6 245.78 801.951 246.075 801.4 246.468V266.941C801.007 267.059 800.378 267.177 799.512 267.295C798.686 267.413 797.821 267.472 796.916 267.472C796.051 267.472 795.264 267.413 794.556 267.295C793.888 267.177 793.317 266.941 792.845 266.587C792.373 266.233 792 265.761 791.724 265.171C791.488 264.542 791.37 263.735 791.37 262.752V245.052C791.37 243.99 791.587 243.125 792.019 242.456C792.491 241.787 793.121 241.178 793.907 240.627C795.245 239.683 796.916 238.916 798.922 238.326C800.968 237.736 803.229 237.441 805.707 237.441C810.152 237.441 813.574 238.424 815.973 240.391C818.373 242.318 819.572 245.013 819.572 248.474V266.941C819.179 267.059 818.55 267.177 817.684 267.295C816.858 267.413 815.993 267.472 815.088 267.472C814.223 267.472 813.436 267.413 812.728 267.295C812.06 267.177 811.489 266.941 811.017 266.587C810.545 266.233 810.172 265.761 809.896 265.171C809.66 264.542 809.542 263.735 809.542 262.752V248.828ZM825.768 238.739C826.161 238.621 826.771 238.503 827.597 238.385C828.462 238.267 829.347 238.208 830.252 238.208C831.117 238.208 831.884 238.267 832.553 238.385C833.261 238.503 833.851 238.739 834.323 239.093C834.795 239.447 835.149 239.939 835.385 240.568C835.66 241.158 835.798 241.945 835.798 242.928V255.613C835.798 257.226 836.191 258.386 836.978 259.094C837.764 259.763 838.905 260.097 840.4 260.097C841.304 260.097 842.032 260.018 842.583 259.861C843.173 259.704 843.625 259.546 843.94 259.389V238.739C844.333 238.621 844.943 238.503 845.769 238.385C846.634 238.267 847.519 238.208 848.424 238.208C849.289 238.208 850.056 238.267 850.725 238.385C851.433 238.503 852.023 238.739 852.495 239.093C852.967 239.447 853.321 239.939 853.557 240.568C853.832 241.158 853.97 241.945 853.97 242.928V260.864C853.97 262.831 853.144 264.306 851.492 265.289C850.115 266.154 848.463 266.803 846.536 267.236C844.648 267.708 842.583 267.944 840.341 267.944C838.217 267.944 836.25 267.708 834.441 267.236C832.671 266.764 831.137 266.036 829.839 265.053C828.541 264.07 827.538 262.811 826.83 261.277C826.122 259.704 825.768 257.816 825.768 255.613V238.739ZM884.298 258.445C884.298 261.434 883.177 263.775 880.935 265.466C878.693 267.157 875.389 268.003 871.023 268.003C869.371 268.003 867.837 267.885 866.421 267.649C865.005 267.413 863.785 267.059 862.763 266.587C861.779 266.076 860.993 265.446 860.403 264.699C859.852 263.952 859.577 263.067 859.577 262.044C859.577 261.1 859.773 260.313 860.167 259.684C860.56 259.015 861.032 258.465 861.583 258.032C862.723 258.661 864.021 259.232 865.477 259.743C866.971 260.215 868.682 260.451 870.61 260.451C871.829 260.451 872.753 260.274 873.383 259.92C874.051 259.566 874.386 259.094 874.386 258.504C874.386 257.953 874.15 257.521 873.678 257.206C873.206 256.891 872.419 256.636 871.318 256.439L869.548 256.085C866.126 255.416 863.569 254.374 861.878 252.958C860.226 251.503 859.4 249.438 859.4 246.763C859.4 245.308 859.714 243.99 860.344 242.81C860.973 241.63 861.858 240.647 862.999 239.86C864.139 239.073 865.496 238.464 867.07 238.031C868.682 237.598 870.452 237.382 872.38 237.382C873.835 237.382 875.192 237.5 876.451 237.736C877.749 237.933 878.87 238.247 879.814 238.68C880.758 239.113 881.505 239.683 882.056 240.391C882.606 241.06 882.882 241.866 882.882 242.81C882.882 243.715 882.705 244.501 882.351 245.17C882.036 245.799 881.623 246.33 881.112 246.763C880.797 246.566 880.325 246.37 879.696 246.173C879.066 245.937 878.378 245.74 877.631 245.583C876.883 245.386 876.116 245.229 875.33 245.111C874.582 244.993 873.894 244.934 873.265 244.934C871.967 244.934 870.964 245.091 870.256 245.406C869.548 245.681 869.194 246.134 869.194 246.763C869.194 247.196 869.39 247.55 869.784 247.825C870.177 248.1 870.924 248.356 872.026 248.592L873.855 249.005C877.631 249.87 880.305 251.07 881.879 252.604C883.491 254.099 884.298 256.046 884.298 258.445Z" fill="white"/>
<path d="M545.641 250.929L545.688 251.447L545.053 251.448C544.445 251.444 543.846 251.501 543.251 251.588C543.17 251.6 543.116 251.608 543.039 251.65C542.742 251.694 541.727 251.935 541.433 252.194C541.684 252.405 542.358 252.676 542.587 252.735C546.756 253.514 550.154 252.955 553.483 251.911L553.537 251.903L553.564 251.899L553.618 251.891L553.668 251.853L553.695 251.849L553.722 251.845L553.749 251.841L553.803 251.833L553.88 251.791L553.934 251.783L554.01 251.741L554.065 251.733L554.119 251.725L554.141 251.691L554.195 251.683L554.249 251.675L554.326 251.633L554.38 251.625L554.407 251.621L554.461 251.613L554.511 251.575L554.538 251.571L554.592 251.563L554.642 251.525L554.696 251.517L554.723 251.513L554.777 251.505L554.827 251.467L554.854 251.463L554.908 251.455L554.935 251.451L554.958 251.417L554.985 251.413L555.039 251.405L555.093 251.397L555.142 251.359L555.17 251.355L555.224 251.347L555.273 251.309L555.3 251.305L555.327 251.301L555.354 251.297L555.404 251.259L555.458 251.251L555.485 251.247L555.535 251.209L555.589 251.201L555.616 251.197L555.67 251.189L555.72 251.151L555.747 251.147L555.801 251.139L555.851 251.101L555.905 251.093L555.932 251.089L555.981 251.051L556.036 251.043L556.063 251.039L556.112 251.001L556.139 250.997L556.166 250.993L556.22 250.985L556.243 250.951L556.189 250.959L556.027 250.983L555.865 251.006L555.702 251.03L555.572 251.08L555.409 251.104L555.247 251.128L555.085 251.151L554.923 251.175L554.761 251.199L554.625 251.219L554.463 251.243L554.301 251.266L554.139 251.29L553.977 251.314L553.814 251.338L553.679 251.358L553.517 251.381L553.355 251.405L553.193 251.429L553.03 251.453L552.869 251.476L552.733 251.496L552.571 251.52L552.409 251.544L552.242 251.537L552.08 251.561L551.945 251.581L551.783 251.605L551.621 251.628L551.458 251.652L551.292 251.646L551.13 251.669L550.994 251.689L550.828 251.683L550.666 251.706L550.504 251.73L550.341 251.754L550.175 251.747L550.04 251.767L549.873 251.761L549.711 251.784L549.549 251.808L549.382 251.802L549.247 251.822L549.08 251.815L548.918 251.839L548.752 251.833L548.59 251.856L548.423 251.85L548.288 251.869L548.121 251.863L547.959 251.887L547.793 251.88L547.63 251.904L547.491 251.894L547.324 251.887L547.162 251.911L546.996 251.904L546.829 251.898L546.694 251.918L546.527 251.911L546.361 251.905L546.194 251.898L546.177 251.777L546.173 251.747L546.168 251.717L546.164 251.687L546.16 251.657L546.155 251.626L546.182 251.622L546.178 251.592L546.174 251.562L546.169 251.532L546.165 251.501L546.161 251.471L546.156 251.441L546.152 251.411L546.148 251.38L546.144 251.35L546.139 251.32L546.135 251.29L546.131 251.26L546.126 251.229L546.122 251.199L546.118 251.169L546.145 251.165L546.14 251.135L546.136 251.104L546.132 251.074L546.127 251.044L546.123 251.014L546.119 250.983L546.114 250.953L546.11 250.923C546.042 250.254 546.001 249.58 545.933 248.911C551.129 248.767 556.262 247.984 561.289 246.661C561.424 247.413 561.587 248.161 561.722 248.914L562.169 248.756C561.053 243.268 560.283 237.885 560.281 232.667C556.275 231.093 546.366 232.452 542.951 235.206C544.399 240.119 545.16 245.442 545.641 250.929ZM555.455 232.509C556.171 232.497 556.869 232.549 557.566 232.601C557.8 237.322 558.385 241.991 559.272 246.647C558.605 246.807 557.933 246.936 557.289 247.062C556.407 242.25 555.769 237.403 555.455 232.509Z" fill="white"/>
<path d="M565.885 249.847C565.431 249.759 564.74 250.138 564.298 250.327C562.013 251.341 559.747 252.475 557.396 253.407L557.238 253.461C560.399 253.368 565.79 253.041 566.839 250.726L566.629 250.417C566.451 250.135 566.222 249.89 565.885 249.847Z" fill="white"/>
<path d="M562.688 249.111C555.791 251.449 550.49 254.727 542.498 253.273C539.51 252.26 541.398 251.366 543.178 251.074C543.772 250.987 544.403 250.956 545.006 250.93C543.775 250.616 540.907 250.635 540.227 252.062C538.924 254.723 543.478 255.106 547.342 254.91C555.152 254.507 558.013 252.513 564.12 249.858C565.158 249.398 566.148 248.789 567 250.116C566.993 248.141 564.903 248.385 562.688 249.111Z" fill="white"/>
<path d="M553.81 264.265C550.926 260.995 549.07 266.66 546.336 263.966C546.16 267.282 551.177 267.996 553.81 265.532C556.444 267.996 561.461 267.282 561.285 263.966C558.551 266.66 556.695 260.995 553.81 264.265Z" fill="white"/>
</svg>
