<svg width="1440" height="500" viewBox="0 0 1440 500" fill="none" xmlns="http://www.w3.org/2000/svg">
<rect x="-30" width="1500" height="500" fill="#1565C0"/>
<path d="M595.344 326V317.562H598.156V311.938H600.969V320.375H598.156V326H595.344ZM606.594 326V320.375H603.781V311.938H606.594V317.562H609.406V326H606.594ZM600.969 311.938V306.312H603.781V311.938H600.969ZM592.531 317.562V303.5H595.344V317.562H592.531ZM609.406 317.562V303.5H612.219V317.562H609.406ZM615.031 326V303.5H629.094V306.312H617.844V311.938H626.281V314.75H617.844V323.188H629.094V326H615.031ZM648.781 323.188V314.75H651.594V323.188H648.781ZM634.719 326V303.5H645.969V306.312H637.531V311.938H645.969V306.312H648.781V314.75H637.531V323.188H648.781V326H634.719ZM685.344 323.188V320.375H688.156V323.188H685.344ZM688.156 320.375V309.125H690.969V320.375H688.156ZM685.344 309.125V306.312H688.156V309.125H685.344ZM674.094 326V303.5H685.344V306.312H676.906V323.188H685.344V326H674.094ZM693.781 326V303.5H707.844V306.312H696.594V311.938H705.031V314.75H696.594V323.188H707.844V326H693.781ZM719.094 326V320.375H721.906V326H719.094ZM716.281 320.375V314.75H719.094V320.375H716.281ZM721.906 320.375V314.75H724.719V320.375H721.906ZM713.469 314.75V309.125H716.281V314.75H713.469ZM724.719 314.75V309.125H727.531V314.75H724.719ZM710.656 309.125V303.5H713.469V309.125H710.656ZM727.531 309.125V303.5H730.344V309.125H727.531ZM733.156 326V303.5H747.219V306.312H735.969V311.938H744.406V314.75H735.969V323.188H747.219V326H733.156ZM752.844 326V303.5H755.656V323.188H766.906V326H752.844ZM778.156 326V323.188H783.781V326H778.156ZM775.344 323.188V320.375H778.156V323.188H775.344ZM783.781 323.188V320.375H786.594V323.188H783.781ZM772.531 320.375V309.125H775.344V320.375H772.531ZM786.594 320.375V309.125H789.406V320.375H786.594ZM775.344 309.125V306.312H778.156V309.125H775.344ZM783.781 309.125V306.312H786.594V309.125H783.781ZM778.156 306.312V303.5H783.781V306.312H778.156ZM803.469 314.75V306.312H806.281V314.75H803.469ZM792.219 326V303.5H803.469V306.312H795.031V314.75H803.469V317.562H795.031V326H792.219ZM811.906 326V303.5H825.969V306.312H814.719V311.938H823.156V314.75H814.719V323.188H825.969V326H811.906ZM845.656 326V323.188H848.469V326H845.656ZM842.844 323.188V320.375H845.656V323.188H842.844ZM842.844 314.75V306.312H845.656V314.75H842.844ZM831.594 326V303.5H842.844V306.312H834.406V314.75H842.844V320.375H840.031V317.562H834.406V326H831.594Z" fill="white"/>
<path d="M535.597 255.1C534.731 255.833 533.597 256.433 532.197 256.9C530.864 257.3 529.297 257.5 527.497 257.5C525.097 257.5 523.097 257.2 521.497 256.6C519.964 256 518.964 254.967 518.497 253.5C516.631 247.633 515.097 242.9 513.897 239.3C512.697 235.633 511.764 232.433 511.097 229.7H510.597C510.397 233.633 510.231 237.233 510.097 240.5C510.031 243.7 509.964 246.833 509.897 249.9C509.897 252.967 509.831 256.067 509.697 259.2C509.631 262.333 509.497 265.8 509.297 269.6C508.431 269.933 507.297 270.2 505.897 270.4C504.497 270.667 503.097 270.8 501.697 270.8C498.764 270.8 496.464 270.333 494.797 269.4C493.197 268.467 492.397 266.767 492.397 264.3L495.297 213.3C495.831 212.433 496.997 211.5 498.797 210.5C500.597 209.5 503.131 209 506.397 209C509.931 209 512.697 209.567 514.697 210.7C516.697 211.767 518.164 213.533 519.097 216C519.697 217.6 520.331 219.433 520.997 221.5C521.731 223.567 522.431 225.7 523.097 227.9C523.831 230.1 524.531 232.3 525.197 234.5C525.864 236.633 526.464 238.567 526.997 240.3H527.497C529.097 234.7 530.697 229.3 532.297 224.1C533.897 218.833 535.364 214.433 536.697 210.9C537.697 210.367 538.964 209.933 540.497 209.6C542.097 209.2 543.864 209 545.797 209C549.064 209 551.731 209.5 553.797 210.5C555.864 211.433 557.064 212.8 557.397 214.6C557.664 215.933 557.931 218 558.197 220.8C558.531 223.533 558.864 226.633 559.197 230.1C559.531 233.567 559.864 237.233 560.197 241.1C560.531 244.967 560.831 248.7 561.097 252.3C561.431 255.833 561.697 259.1 561.897 262.1C562.097 265.033 562.231 267.3 562.297 268.9C561.164 269.567 559.964 270.033 558.697 270.3C557.497 270.633 555.931 270.8 553.997 270.8C551.464 270.8 549.331 270.367 547.597 269.5C545.864 268.633 544.931 266.933 544.797 264.4C544.397 257.133 544.131 250.6 543.997 244.8C543.931 239 543.797 234.133 543.597 230.2H543.097C542.431 232.8 541.464 236.067 540.197 240C538.931 243.933 537.397 248.967 535.597 255.1ZM589.085 269.9C588.418 270.1 587.351 270.3 585.885 270.5C584.485 270.7 583.018 270.8 581.485 270.8C580.018 270.8 578.685 270.7 577.485 270.5C576.351 270.3 575.385 269.9 574.585 269.3C573.785 268.7 573.151 267.9 572.685 266.9C572.285 265.833 572.085 264.467 572.085 262.8V232.8C572.085 231.267 572.351 229.967 572.885 228.9C573.485 227.767 574.318 226.767 575.385 225.9C576.451 225.033 577.751 224.267 579.285 223.6C580.885 222.867 582.585 222.233 584.385 221.7C586.185 221.167 588.051 220.767 589.985 220.5C591.918 220.167 593.851 220 595.785 220C598.985 220 601.518 220.633 603.385 221.9C605.251 223.1 606.185 225.1 606.185 227.9C606.185 228.833 606.051 229.767 605.785 230.7C605.518 231.567 605.185 232.367 604.785 233.1C603.385 233.1 601.951 233.167 600.485 233.3C599.018 233.433 597.585 233.633 596.185 233.9C594.785 234.167 593.451 234.467 592.185 234.8C590.985 235.067 589.951 235.4 589.085 235.8V269.9ZM669.398 260.1C669.398 262.167 669.031 263.7 668.298 264.7C667.565 265.7 666.398 266.667 664.798 267.6C663.865 268.133 662.698 268.667 661.298 269.2C659.898 269.667 658.365 270.067 656.698 270.4C655.031 270.8 653.265 271.1 651.398 271.3C649.598 271.5 647.798 271.6 645.998 271.6C641.198 271.6 636.698 270.967 632.498 269.7C628.298 268.367 624.631 266.4 621.498 263.8C618.431 261.133 615.998 257.833 614.198 253.9C612.398 249.967 611.498 245.4 611.498 240.2C611.498 234.733 612.465 229.967 614.398 225.9C616.398 221.833 618.998 218.467 622.198 215.8C625.465 213.067 629.165 211.033 633.298 209.7C637.498 208.367 641.798 207.7 646.198 207.7C652.531 207.7 657.531 208.733 661.198 210.8C664.931 212.8 666.798 215.433 666.798 218.7C666.798 220.433 666.365 221.933 665.498 223.2C664.631 224.467 663.631 225.467 662.498 226.2C660.831 225.2 658.731 224.233 656.198 223.3C653.731 222.3 650.931 221.8 647.798 221.8C642.198 221.8 637.731 223.4 634.398 226.6C631.131 229.8 629.498 234.233 629.498 239.9C629.498 242.967 629.931 245.633 630.798 247.9C631.731 250.1 632.965 251.933 634.498 253.4C636.031 254.8 637.798 255.867 639.798 256.6C641.798 257.267 643.931 257.6 646.198 257.6C647.665 257.6 648.965 257.467 650.098 257.2C651.231 256.933 652.098 256.633 652.698 256.3V246.9H641.998C641.598 246.167 641.198 245.2 640.798 244C640.465 242.8 640.298 241.533 640.298 240.2C640.298 237.8 640.831 236.067 641.898 235C643.031 233.933 644.465 233.4 646.198 233.4H663.098C665.098 233.4 666.631 233.967 667.698 235.1C668.831 236.167 669.398 237.7 669.398 239.7V260.1ZM705.304 271.6C701.371 271.6 697.704 271.067 694.304 270C690.971 268.867 688.038 267.2 685.504 265C683.038 262.8 681.071 260.033 679.604 256.7C678.204 253.367 677.504 249.467 677.504 245C677.504 240.6 678.204 236.833 679.604 233.7C681.071 230.5 682.971 227.9 685.304 225.9C687.638 223.833 690.304 222.333 693.304 221.4C696.304 220.4 699.371 219.9 702.504 219.9C706.038 219.9 709.238 220.433 712.104 221.5C715.038 222.567 717.538 224.033 719.604 225.9C721.738 227.767 723.371 230 724.504 232.6C725.704 235.2 726.304 238.033 726.304 241.1C726.304 243.367 725.671 245.1 724.404 246.3C723.138 247.5 721.371 248.267 719.104 248.6L694.404 252.3C695.138 254.5 696.638 256.167 698.904 257.3C701.171 258.367 703.771 258.9 706.704 258.9C709.438 258.9 712.004 258.567 714.404 257.9C716.871 257.167 718.871 256.333 720.404 255.4C721.471 256.067 722.371 257 723.104 258.2C723.838 259.4 724.204 260.667 724.204 262C724.204 265 722.804 267.233 720.004 268.7C717.871 269.833 715.471 270.6 712.804 271C710.138 271.4 707.638 271.6 705.304 271.6ZM702.504 232.3C700.904 232.3 699.504 232.567 698.304 233.1C697.171 233.633 696.238 234.333 695.504 235.2C694.771 236 694.204 236.933 693.804 238C693.471 239 693.271 240.033 693.204 241.1L710.304 238.3C710.104 236.967 709.371 235.633 708.104 234.3C706.838 232.967 704.971 232.3 702.504 232.3ZM757.787 219.9C760.52 219.9 763.187 220.3 765.787 221.1C768.454 221.833 770.754 222.967 772.687 224.5C774.687 223.167 776.92 222.067 779.387 221.2C781.92 220.333 784.954 219.9 788.487 219.9C791.02 219.9 793.487 220.233 795.887 220.9C798.354 221.567 800.52 222.633 802.387 224.1C804.32 225.5 805.854 227.4 806.987 229.8C808.12 232.133 808.687 235 808.687 238.4V269.9C808.02 270.1 806.954 270.3 805.487 270.5C804.087 270.7 802.62 270.8 801.087 270.8C799.62 270.8 798.287 270.7 797.087 270.5C795.954 270.3 794.987 269.9 794.187 269.3C793.387 268.7 792.754 267.9 792.287 266.9C791.887 265.833 791.687 264.467 791.687 262.8V238.9C791.687 236.9 791.12 235.467 789.987 234.6C788.854 233.667 787.32 233.2 785.387 233.2C784.454 233.2 783.454 233.433 782.387 233.9C781.32 234.3 780.52 234.733 779.987 235.2C780.054 235.467 780.087 235.733 780.087 236C780.087 236.2 780.087 236.4 780.087 236.6V269.9C779.354 270.1 778.254 270.3 776.787 270.5C775.387 270.7 773.954 270.8 772.487 270.8C771.02 270.8 769.687 270.7 768.487 270.5C767.354 270.3 766.387 269.9 765.587 269.3C764.787 268.7 764.154 267.9 763.687 266.9C763.287 265.833 763.087 264.467 763.087 262.8V238.9C763.087 236.9 762.454 235.467 761.187 234.6C759.987 233.667 758.52 233.2 756.787 233.2C755.587 233.2 754.554 233.4 753.687 233.8C752.82 234.133 752.087 234.467 751.487 234.8V269.9C750.82 270.1 749.754 270.3 748.287 270.5C746.887 270.7 745.42 270.8 743.887 270.8C742.42 270.8 741.087 270.7 739.887 270.5C738.754 270.3 737.787 269.9 736.987 269.3C736.187 268.7 735.554 267.9 735.087 266.9C734.687 265.833 734.487 264.467 734.487 262.8V232.6C734.487 230.8 734.854 229.367 735.587 228.3C736.387 227.233 737.454 226.233 738.787 225.3C741.054 223.7 743.854 222.4 747.187 221.4C750.587 220.4 754.12 219.9 757.787 219.9ZM818.657 207.9C818.657 205.367 819.491 203.233 821.157 201.5C822.891 199.767 825.157 198.9 827.957 198.9C830.757 198.9 832.991 199.767 834.657 201.5C836.391 203.233 837.257 205.367 837.257 207.9C837.257 210.433 836.391 212.567 834.657 214.3C832.991 216.033 830.757 216.9 827.957 216.9C825.157 216.9 822.891 216.033 821.157 214.3C819.491 212.567 818.657 210.433 818.657 207.9ZM836.457 269.9C835.724 270.033 834.624 270.2 833.157 270.4C831.757 270.667 830.324 270.8 828.857 270.8C827.391 270.8 826.057 270.7 824.857 270.5C823.724 270.3 822.757 269.9 821.957 269.3C821.157 268.7 820.524 267.9 820.057 266.9C819.657 265.833 819.457 264.467 819.457 262.8V222.1C820.191 221.967 821.257 221.8 822.657 221.6C824.124 221.333 825.591 221.2 827.057 221.2C828.524 221.2 829.824 221.3 830.957 221.5C832.157 221.7 833.157 222.1 833.957 222.7C834.757 223.3 835.357 224.133 835.757 225.2C836.224 226.2 836.457 227.533 836.457 229.2V269.9ZM878.08 239.2C878.08 237.133 877.48 235.633 876.28 234.7C875.147 233.7 873.58 233.2 871.58 233.2C870.247 233.2 868.913 233.367 867.58 233.7C866.313 234.033 865.213 234.533 864.28 235.2V269.9C863.613 270.1 862.547 270.3 861.08 270.5C859.68 270.7 858.213 270.8 856.68 270.8C855.213 270.8 853.88 270.7 852.68 270.5C851.547 270.3 850.58 269.9 849.78 269.3C848.98 268.7 848.347 267.9 847.88 266.9C847.48 265.833 847.28 264.467 847.28 262.8V232.8C847.28 231 847.647 229.533 848.38 228.4C849.18 227.267 850.247 226.233 851.58 225.3C853.847 223.7 856.68 222.4 860.08 221.4C863.547 220.4 867.38 219.9 871.58 219.9C879.113 219.9 884.913 221.567 888.98 224.9C893.047 228.167 895.08 232.733 895.08 238.6V269.9C894.413 270.1 893.347 270.3 891.88 270.5C890.48 270.7 889.013 270.8 887.48 270.8C886.013 270.8 884.68 270.7 883.48 270.5C882.347 270.3 881.38 269.9 880.58 269.3C879.78 268.7 879.147 267.9 878.68 266.9C878.28 265.833 878.08 264.467 878.08 262.8V239.2ZM905.581 222.1C906.248 221.9 907.281 221.7 908.681 221.5C910.148 221.3 911.648 221.2 913.181 221.2C914.648 221.2 915.948 221.3 917.081 221.5C918.281 221.7 919.281 222.1 920.081 222.7C920.881 223.3 921.481 224.133 921.881 225.2C922.348 226.2 922.581 227.533 922.581 229.2V250.7C922.581 253.433 923.248 255.4 924.581 256.6C925.914 257.733 927.848 258.3 930.381 258.3C931.914 258.3 933.148 258.167 934.081 257.9C935.081 257.633 935.848 257.367 936.381 257.1V222.1C937.048 221.9 938.081 221.7 939.481 221.5C940.948 221.3 942.448 221.2 943.981 221.2C945.448 221.2 946.748 221.3 947.881 221.5C949.081 221.7 950.081 222.1 950.881 222.7C951.681 223.3 952.281 224.133 952.681 225.2C953.148 226.2 953.381 227.533 953.381 229.2V259.6C953.381 262.933 951.981 265.433 949.181 267.1C946.848 268.567 944.048 269.667 940.781 270.4C937.581 271.2 934.081 271.6 930.281 271.6C926.681 271.6 923.348 271.2 920.281 270.4C917.281 269.6 914.681 268.367 912.481 266.7C910.281 265.033 908.581 262.9 907.381 260.3C906.181 257.633 905.581 254.433 905.581 250.7V222.1ZM1004.78 255.5C1004.78 260.567 1002.88 264.533 999.084 267.4C995.284 270.267 989.684 271.7 982.284 271.7C979.484 271.7 976.884 271.5 974.484 271.1C972.084 270.7 970.017 270.1 968.284 269.3C966.617 268.433 965.284 267.367 964.284 266.1C963.351 264.833 962.884 263.333 962.884 261.6C962.884 260 963.217 258.667 963.884 257.6C964.551 256.467 965.351 255.533 966.284 254.8C968.217 255.867 970.417 256.833 972.884 257.7C975.417 258.5 978.317 258.9 981.584 258.9C983.651 258.9 985.217 258.6 986.284 258C987.417 257.4 987.984 256.6 987.984 255.6C987.984 254.667 987.584 253.933 986.784 253.4C985.984 252.867 984.651 252.433 982.784 252.1L979.784 251.5C973.984 250.367 969.651 248.6 966.784 246.2C963.984 243.733 962.584 240.233 962.584 235.7C962.584 233.233 963.117 231 964.184 229C965.251 227 966.751 225.333 968.684 224C970.617 222.667 972.917 221.633 975.584 220.9C978.317 220.167 981.317 219.8 984.584 219.8C987.051 219.8 989.351 220 991.484 220.4C993.684 220.733 995.584 221.267 997.184 222C998.784 222.733 1000.05 223.7 1000.98 224.9C1001.92 226.033 1002.38 227.4 1002.38 229C1002.38 230.533 1002.08 231.867 1001.48 233C1000.95 234.067 1000.25 234.967 999.384 235.7C998.851 235.367 998.051 235.033 996.984 234.7C995.917 234.3 994.751 233.967 993.484 233.7C992.217 233.367 990.917 233.1 989.584 232.9C988.317 232.7 987.151 232.6 986.084 232.6C983.884 232.6 982.184 232.867 980.984 233.4C979.784 233.867 979.184 234.633 979.184 235.7C979.184 236.433 979.517 237.033 980.184 237.5C980.851 237.967 982.117 238.4 983.984 238.8L987.084 239.5C993.484 240.967 998.017 243 1000.68 245.6C1003.42 248.133 1004.78 251.433 1004.78 255.5Z" fill="white"/>
<path d="M429.491 237.859L429.586 238.895L428.293 238.896C427.055 238.888 425.834 239.002 424.623 239.176C424.458 239.2 424.348 239.216 424.191 239.301C423.585 239.388 421.519 239.87 420.92 240.389C421.431 240.809 422.803 241.353 423.27 241.471C431.763 243.028 438.684 241.909 445.465 239.822L445.575 239.806L445.63 239.798L445.74 239.782L445.842 239.706L445.897 239.698L445.952 239.69L446.007 239.682L446.117 239.667L446.273 239.582L446.383 239.566L446.54 239.482L446.65 239.466L446.76 239.45L446.806 239.382L446.916 239.366L447.027 239.351L447.183 239.266L447.293 239.25L447.348 239.242L447.458 239.227L447.56 239.15L447.615 239.142L447.725 239.127L447.826 239.05L447.936 239.035L447.991 239.027L448.101 239.011L448.203 238.934L448.258 238.926L448.368 238.91L448.423 238.902L448.469 238.834L448.524 238.826L448.634 238.81L448.744 238.795L448.846 238.719L448.901 238.711L449.011 238.695L449.112 238.618L449.167 238.61L449.222 238.603L449.277 238.595L449.379 238.518L449.489 238.502L449.544 238.494L449.645 238.418L449.755 238.402L449.81 238.394L449.921 238.379L450.022 238.302L450.077 238.294L450.187 238.278L450.288 238.202L450.398 238.186L450.454 238.178L450.555 238.102L450.665 238.086L450.72 238.079L450.821 238.002L450.876 237.994L450.931 237.986L451.042 237.97L451.088 237.902L450.978 237.918L450.647 237.965L450.317 238.013L449.987 238.06L449.72 238.161L449.389 238.208L449.059 238.256L448.729 238.303L448.398 238.351L448.068 238.398L447.792 238.438L447.462 238.485L447.132 238.533L446.801 238.58L446.471 238.628L446.14 238.675L445.865 238.715L445.535 238.762L445.204 238.81L444.874 238.857L444.543 238.905L444.214 238.952L443.938 238.992L443.608 239.04L443.277 239.087L442.938 239.074L442.608 239.122L442.332 239.161L442.002 239.209L441.672 239.256L441.341 239.304L441.002 239.291L440.672 239.338L440.396 239.378L440.057 239.365L439.726 239.413L439.396 239.46L439.066 239.508L438.726 239.495L438.451 239.534L438.112 239.522L437.781 239.569L437.451 239.617L437.112 239.604L436.836 239.643L436.497 239.63L436.167 239.678L435.828 239.665L435.497 239.712L435.158 239.7L434.883 239.739L434.543 239.726L434.213 239.774L433.874 239.761L433.543 239.808L433.259 239.787L432.92 239.774L432.59 239.822L432.25 239.809L431.911 239.796L431.636 239.836L431.297 239.823L430.957 239.81L430.618 239.797L430.583 239.555L430.574 239.494L430.565 239.434L430.556 239.374L430.548 239.313L430.539 239.253L430.594 239.245L430.585 239.184L430.576 239.124L430.567 239.063L430.559 239.003L430.55 238.942L430.541 238.882L430.532 238.821L430.523 238.761L430.515 238.7L430.506 238.64L430.497 238.58L430.488 238.519L430.479 238.458L430.471 238.398L430.462 238.338L430.517 238.33L430.508 238.269L430.499 238.209L430.49 238.148L430.482 238.088L430.473 238.027L430.464 237.967L430.455 237.906L430.446 237.846C430.308 236.507 430.224 235.161 430.085 233.822C440.67 233.535 451.125 231.969 461.367 229.322C461.642 230.827 461.973 232.323 462.248 233.827L463.158 233.511C460.885 222.537 459.316 211.77 459.314 201.334C451.152 198.185 430.968 200.904 424.012 206.412C426.96 216.238 428.511 226.884 429.491 237.859ZM449.483 201.018C450.942 200.994 452.363 201.098 453.783 201.202C454.259 210.644 455.451 219.983 457.257 229.295C455.898 229.614 454.53 229.872 453.217 230.123C451.422 220.501 450.122 210.807 449.483 201.018Z" fill="white"/>
<path d="M470.729 235.694C469.803 235.518 468.396 236.277 467.495 236.653C462.842 238.681 458.225 240.951 453.435 242.813L453.114 242.921C459.553 242.736 470.535 242.083 472.672 237.452L472.245 236.835C471.881 236.269 471.416 235.78 470.729 235.694Z" fill="white"/>
<path d="M464.217 234.222C450.166 238.899 439.369 245.454 423.089 242.546C417.003 240.52 420.847 238.731 424.473 238.148C425.685 237.974 426.969 237.913 428.198 237.859C425.689 237.232 419.847 237.27 418.463 240.124C415.809 245.446 425.085 246.212 432.957 245.821C448.864 245.014 454.693 241.026 467.133 235.717C469.248 234.795 471.264 233.579 473 236.232C472.987 232.282 468.728 232.77 464.217 234.222Z" fill="white"/>
<path d="M446.133 264.53C440.257 257.99 436.476 269.32 430.907 263.931C430.549 270.564 440.768 271.992 446.133 267.063C451.497 271.992 461.716 270.564 461.359 263.931C455.789 269.32 452.008 257.99 446.133 264.53Z" fill="white"/>
</svg>
