<svg width="1440" height="500" viewBox="0 0 1440 500" fill="none" xmlns="http://www.w3.org/2000/svg">
<rect x="-30" width="1500" height="500" fill="#1565C0"/>
<path d="M581.758 208.055L591.121 237.238L600.455 208.055H613.764V250H603.624V240.205L604.603 220.154L594.462 250H587.779L577.609 220.125L578.589 240.205V250H568.477V208.055H581.758ZM638.626 227.616L635.428 227.385C632.375 227.385 630.416 228.346 629.551 230.266V250H619.843V218.829H628.946L629.263 222.833C630.896 219.78 633.172 218.253 636.091 218.253C637.128 218.253 638.031 218.368 638.799 218.599L638.626 227.616ZM676.913 244.814C675.357 246.543 673.081 247.935 670.085 248.992C667.089 250.048 663.805 250.576 660.232 250.576C654.74 250.576 650.351 248.896 647.067 245.535C643.783 242.174 642.025 237.497 641.795 231.505L641.766 227.875C641.766 223.746 642.496 220.145 643.956 217.072C645.415 213.98 647.499 211.608 650.207 209.956C652.934 208.285 656.084 207.45 659.656 207.45C664.88 207.45 668.933 208.65 671.813 211.051C674.714 213.432 676.404 216.995 676.884 221.739H667.146C666.801 219.396 666.052 217.725 664.899 216.726C663.747 215.727 662.115 215.228 660.002 215.228C657.467 215.228 655.508 216.304 654.125 218.455C652.742 220.606 652.041 223.679 652.022 227.673V230.208C652.022 234.395 652.733 237.545 654.154 239.658C655.594 241.751 657.851 242.798 660.924 242.798C663.555 242.798 665.514 242.212 666.801 241.041V234.53H659.771V227.587H676.913V244.814ZM697.424 250.576C692.642 250.576 688.772 249.155 685.814 246.312C682.857 243.451 681.378 239.735 681.378 235.164V234.357C681.378 231.169 681.964 228.355 683.135 225.916C684.326 223.477 686.055 221.595 688.321 220.27C690.587 218.925 693.276 218.253 696.387 218.253C700.766 218.253 704.223 219.617 706.758 222.344C709.293 225.052 710.561 228.835 710.561 233.694V237.468H691.259C691.605 239.216 692.364 240.589 693.535 241.588C694.707 242.587 696.224 243.086 698.087 243.086C701.16 243.086 703.561 242.01 705.289 239.859L709.726 245.103C708.516 246.773 706.797 248.108 704.569 249.107C702.36 250.086 699.979 250.576 697.424 250.576ZM696.33 225.743C693.487 225.743 691.797 227.625 691.259 231.39H701.054V230.641C701.093 229.085 700.699 227.885 699.873 227.04C699.047 226.175 697.866 225.743 696.33 225.743ZM723.669 218.829L723.986 222.488C726.194 219.665 729.162 218.253 732.888 218.253C736.825 218.253 739.485 219.818 740.868 222.949C742.98 219.818 746.034 218.253 750.029 218.253C756.347 218.253 759.593 222.075 759.766 229.719V250H750.029V230.324C750.029 228.73 749.76 227.568 749.222 226.838C748.684 226.108 747.705 225.743 746.284 225.743C744.363 225.743 742.932 226.598 741.991 228.307L742.02 228.71V250H732.283V230.381C732.283 228.749 732.023 227.568 731.505 226.838C730.986 226.108 729.997 225.743 728.538 225.743C726.675 225.743 725.253 226.598 724.274 228.307V250H714.565V218.829H723.669ZM775.553 250H765.816V218.829H775.553V250ZM765.24 210.792C765.24 209.409 765.739 208.276 766.738 207.392C767.736 206.509 769.033 206.067 770.627 206.067C772.221 206.067 773.517 206.509 774.516 207.392C775.515 208.276 776.014 209.409 776.014 210.792C776.014 212.174 775.515 213.307 774.516 214.191C773.517 215.074 772.221 215.516 770.627 215.516C769.033 215.516 767.736 215.074 766.738 214.191C765.739 213.307 765.24 212.174 765.24 210.792ZM790.476 218.829L790.793 222.488C792.944 219.665 795.911 218.253 799.695 218.253C802.941 218.253 805.361 219.223 806.955 221.163C808.568 223.102 809.403 226.022 809.461 229.92V250H799.724V230.324C799.724 228.749 799.407 227.597 798.773 226.867C798.139 226.118 796.987 225.743 795.316 225.743C793.415 225.743 792.003 226.492 791.081 227.99V250H781.373V218.829H790.476ZM833.43 246.629C831.375 249.261 828.599 250.576 825.104 250.576C821.685 250.576 819.093 249.587 817.326 247.609C815.578 245.611 814.704 242.75 814.704 239.024V218.829H824.413V239.082C824.413 241.751 825.709 243.086 828.302 243.086C830.53 243.086 832.114 242.289 833.055 240.695V218.829H842.821V250H833.718L833.43 246.629ZM864.485 241.242C864.485 240.416 864.053 239.754 863.189 239.254C862.325 238.755 860.683 238.236 858.263 237.699C855.843 237.161 853.845 236.46 852.271 235.596C850.696 234.712 849.495 233.646 848.669 232.398C847.844 231.15 847.431 229.719 847.431 228.105C847.431 225.244 848.612 222.891 850.974 221.047C853.336 219.184 856.429 218.253 860.25 218.253C864.361 218.253 867.664 219.184 870.161 221.047C872.657 222.91 873.906 225.359 873.906 228.394H864.168C864.168 225.897 862.853 224.648 860.222 224.648C859.204 224.648 858.349 224.937 857.658 225.513C856.966 226.07 856.621 226.771 856.621 227.616C856.621 228.48 857.043 229.181 857.888 229.719C858.733 230.257 860.078 230.698 861.921 231.044C863.784 231.39 865.417 231.803 866.819 232.283C871.505 233.896 873.848 236.786 873.848 240.954C873.848 243.797 872.581 246.111 870.045 247.897C867.529 249.683 864.264 250.576 860.25 250.576C857.581 250.576 855.199 250.096 853.106 249.136C851.013 248.175 849.38 246.869 848.208 245.218C847.037 243.566 846.451 241.828 846.451 240.003H855.526C855.564 241.444 856.044 242.5 856.966 243.172C857.888 243.825 859.069 244.152 860.51 244.152C861.835 244.152 862.824 243.883 863.477 243.345C864.149 242.807 864.485 242.106 864.485 241.242Z" fill="white"/>
<path d="M646.985 286.3L642.071 301H639.866L635.855 289.261L631.844 301H629.597L624.683 286.3H626.846L630.815 298.249L634.952 286.3H636.884L640.937 298.312L644.99 286.3H646.985ZM660.222 299.173V301H649.554V286.3H659.928V288.127H651.654V292.642H659.025V294.427H651.654V299.173H660.222ZM673.513 293.377C674.367 293.615 675.039 294.049 675.529 294.679C676.019 295.295 676.264 296.079 676.264 297.031C676.264 298.305 675.781 299.285 674.815 299.971C673.863 300.657 672.47 301 670.636 301H663.622V286.3H670.216C671.896 286.3 673.191 286.636 674.101 287.308C675.025 287.98 675.487 288.911 675.487 290.101C675.487 290.871 675.305 291.536 674.941 292.096C674.591 292.656 674.115 293.083 673.513 293.377ZM665.722 288.001V292.705H670.027C671.105 292.705 671.931 292.509 672.505 292.117C673.093 291.711 673.387 291.123 673.387 290.353C673.387 289.583 673.093 289.002 672.505 288.61C671.931 288.204 671.105 288.001 670.027 288.001H665.722ZM670.552 299.299C671.742 299.299 672.638 299.103 673.24 298.711C673.842 298.319 674.143 297.703 674.143 296.863C674.143 295.225 672.946 294.406 670.552 294.406H665.722V299.299H670.552ZM685.155 286.3H691.35C692.904 286.3 694.283 286.608 695.487 287.224C696.691 287.84 697.622 288.708 698.28 289.828C698.952 290.934 699.288 292.208 699.288 293.65C699.288 295.092 698.952 296.373 698.28 297.493C697.622 298.599 696.691 299.46 695.487 300.076C694.283 300.692 692.904 301 691.35 301H685.155V286.3ZM691.224 299.173C692.414 299.173 693.457 298.942 694.353 298.48C695.263 298.018 695.963 297.374 696.453 296.548C696.943 295.708 697.188 294.742 697.188 293.65C697.188 292.558 696.943 291.599 696.453 290.773C695.963 289.933 695.263 289.282 694.353 288.82C693.457 288.358 692.414 288.127 691.224 288.127H687.255V299.173H691.224ZM713.173 299.173V301H702.505V286.3H712.879V288.127H704.605V292.642H711.976V294.427H704.605V299.173H713.173ZM729.136 286.3L722.689 301H720.61L714.142 286.3H716.41L721.702 298.375L727.036 286.3H729.136ZM741.679 299.173V301H731.011V286.3H741.385V288.127H733.111V292.642H740.482V294.427H733.111V299.173H741.679ZM745.079 286.3H747.179V299.173H755.138V301H745.079V286.3ZM763.917 301.168C762.433 301.168 761.096 300.846 759.906 300.202C758.716 299.544 757.778 298.641 757.092 297.493C756.42 296.345 756.084 295.064 756.084 293.65C756.084 292.236 756.42 290.955 757.092 289.807C757.778 288.659 758.716 287.763 759.906 287.119C761.096 286.461 762.433 286.132 763.917 286.132C765.387 286.132 766.717 286.461 767.907 287.119C769.097 287.763 770.028 288.659 770.7 289.807C771.372 290.941 771.708 292.222 771.708 293.65C771.708 295.078 771.372 296.366 770.7 297.514C770.028 298.648 769.097 299.544 767.907 300.202C766.717 300.846 765.387 301.168 763.917 301.168ZM763.917 299.299C764.995 299.299 765.961 299.054 766.815 298.564C767.683 298.074 768.362 297.402 768.852 296.548C769.356 295.68 769.608 294.714 769.608 293.65C769.608 292.586 769.356 291.627 768.852 290.773C768.362 289.905 767.683 289.226 766.815 288.736C765.961 288.246 764.995 288.001 763.917 288.001C762.839 288.001 761.859 288.246 760.977 288.736C760.109 289.226 759.423 289.905 758.919 290.773C758.429 291.627 758.184 292.586 758.184 293.65C758.184 294.714 758.429 295.68 758.919 296.548C759.423 297.402 760.109 298.074 760.977 298.564C761.859 299.054 762.839 299.299 763.917 299.299ZM780.651 286.3C782.555 286.3 784.053 286.755 785.145 287.665C786.237 288.575 786.783 289.828 786.783 291.424C786.783 293.02 786.237 294.273 785.145 295.183C784.053 296.093 782.555 296.548 780.651 296.548H777.018V301H774.918V286.3H780.651ZM780.588 294.721C781.918 294.721 782.933 294.441 783.633 293.881C784.333 293.307 784.683 292.488 784.683 291.424C784.683 290.36 784.333 289.548 783.633 288.988C782.933 288.414 781.918 288.127 780.588 288.127H777.018V294.721H780.588ZM800.536 299.173V301H789.868V286.3H800.242V288.127H791.968V292.642H799.339V294.427H791.968V299.173H800.536ZM813.764 301L810.593 296.485C810.201 296.513 809.893 296.527 809.669 296.527H806.036V301H803.936V286.3H809.669C811.573 286.3 813.071 286.755 814.163 287.665C815.255 288.575 815.801 289.828 815.801 291.424C815.801 292.558 815.521 293.524 814.961 294.322C814.401 295.12 813.603 295.701 812.567 296.065L816.053 301H813.764ZM809.606 294.742C810.936 294.742 811.951 294.455 812.651 293.881C813.351 293.307 813.701 292.488 813.701 291.424C813.701 290.36 813.351 289.548 812.651 288.988C811.951 288.414 810.936 288.127 809.606 288.127H806.036V294.742H809.606Z" fill="white"/>
</svg>
